<svg viewBox="0 0 100 100" xmlns="http://www.w3.org/2000/svg"><g fill="currentColor"><circle cx="50" cy="50" r="15"/><ellipse cx="50" cy="25" rx="8" ry="20" transform="rotate(0 50 50)"/><ellipse cx="50" cy="25" rx="8" ry="20" transform="rotate(30 50 50)"/><ellipse cx="50" cy="25" rx="8" ry="20" transform="rotate(60 50 50)"/><ellipse cx="50" cy="25" rx="8" ry="20" transform="rotate(90 50 50)"/><ellipse cx="50" cy="25" rx="8" ry="20" transform="rotate(120 50 50)"/><ellipse cx="50" cy="25" rx="8" ry="20" transform="rotate(150 50 50)"/><ellipse cx="50" cy="25" rx="8" ry="20" transform="rotate(180 50 50)"/><ellipse cx="50" cy="25" rx="8" ry="20" transform="rotate(210 50 50)"/><ellipse cx="50" cy="25" rx="8" ry="20" transform="rotate(240 50 50)"/><ellipse cx="50" cy="25" rx="8" ry="20" transform="rotate(270 50 50)"/><ellipse cx="50" cy="25" rx="8" ry="20" transform="rotate(300 50 50)"/><ellipse cx="50" cy="25" rx="8" ry="20" transform="rotate(330 50 50)"/></g></svg>